<?xml version="1.0" encoding="utf-8"?>
<!-- Generator: Adobe Illustrator 27.5.0, SVG Export Plug-In . SVG Version: 6.00 Build 0)  -->
<svg version="1.1" xmlns="http://www.w3.org/2000/svg" xmlns:xlink="http://www.w3.org/1999/xlink" x="0px" y="0px"
	 viewBox="0 0 500 500" style="enable-background:new 0 0 500 500;" xml:space="preserve">
<g id="BACKGROUND">
</g>
<g id="OBJECTS">
	<g>
		<path style="fill:#2595FF;" d="M284.237,78.02c-0.456,2.307,0.58,4.944,9.515,9.958c0.297,0.167,0.599,0.335,0.904,0.505
			l0.548,6.684l-0.664-0.417c-0.272-0.171-0.63-0.089-0.801,0.183l-0.366,0.583c-0.171,0.272-0.089,0.63,0.183,0.801l1.836,1.152
			l0.553,6.748l-0.407-0.256c-0.272-0.171-0.63-0.089-0.801,0.183l-0.366,0.583c-0.171,0.272-0.089,0.63,0.183,0.801l1.579,0.992
			l0.444,5.413l3.84,2.41l2.801-21.254c4.83,2.534,9.579,4.939,12.91,6.607l0.357,7.033l2.554,1.603l1.791-6.768l2.152,0.488
			l-1.375-1.726l5.317-4.554l-2.554-1.603l-6.488,2.735c-2.95-2.274-7.181-5.507-11.561-8.756l17.925-11.759l-3.84-2.41
			l-5.068,1.953l-1.579-0.992c-0.272-0.171-0.63-0.089-0.801,0.183l-0.366,0.583c-0.171,0.272-0.089,0.63,0.183,0.801l0.407,0.256
			l-6.318,2.434l-1.836-1.153c-0.272-0.171-0.63-0.089-0.801,0.183l-0.366,0.583c-0.171,0.272-0.089,0.63,0.183,0.801l0.663,0.416
			l-6.258,2.411c-0.285-0.201-0.568-0.399-0.847-0.595c-8.399-5.868-11.224-5.655-13.104-4.241
			C284.363,77.704,284.269,77.854,284.237,78.02z"/>
		<path style="fill:#DB7112;" d="M330.863,122.23c-0.217,6.917-2.633,14.183-7.85,20.399c-11.15,13.316-36.216,24.733-76.481,39.082
			c-42.815,15.25-88.181,30.966-90.764,62.948c-4.55-11.533-7.083-24.083-7.083-37.216c0-55.965,45.365-101.33,101.313-101.33
			c2.017,0,4,0.067,5.983,0.183c25.149,1.467,47.815,12.116,64.748,28.632C324.696,132.263,329.113,128.113,330.863,122.23z"/>
		<path style="fill:#FF8619;" d="M229.549,319.857c-68.448-35.316-38.049-79.148,30.499-109.78
			C187.484,256.459,205.716,295.824,229.549,319.857z"/>
		<path style="fill:#2595FF;" d="M312.813,163.262c-0.6,0.517-1.233,1.017-1.867,1.533c-39.982,33.182-94.031,45.782-121.93,77.331
			c-21.566,24.399-14.35,41.432-10.683,47.948c-21.266-18.516-20.549-48.565,12.633-69.081
			C224.149,200.494,266.998,190.227,312.813,163.262z"/>
		<path style="fill:#FF8619;" d="M330.863,122.23c-0.217,6.917-2.633,14.183-7.85,20.399c-11.15,13.316-36.216,24.733-76.481,39.082
			c-42.815,15.25-88.181,30.966-90.764,62.948c-4.55-11.533-7.083-24.083-7.083-37.216c0-55.965,45.365-101.33,101.313-101.33
			c2.017,0,4,0.067,5.983,0.183c-45.515,0.083-89.247,43.399-84.764,86.814c12.333-37.032,103.297-31.966,149.512-58.182
			C324.696,132.263,329.113,128.113,330.863,122.23z"/>
		<path style="fill:#2595FF;" d="M342.545,166.204c9.496-26.073,2.222-49.666-16.548-61.514
			c38.58,44.679-28.867,85.319-79.147,127.088c-26.155,21.728-30.606,57.771-3.481,71.611c8.275,4.222,17.832,5.167,26.935,3.315
			c46.223-9.404,81.011-50.266,81.011-99.265C351.315,192.75,348.173,178.801,342.545,166.204z"/>
		<path style="fill:#238AED;" d="M342.545,166.204c-14.421,34.724-82.572,80.208-90.589,97.063
			c-12.34,25.944,21.489,36.595,47.847,17.021c-49.975-2.979,42.054-44.812,50.99-83.109"/>
		<path style="fill:#DB7112;" d="M229.549,319.857c-59.015-46.515-24.116-77.164,30.499-109.78
			C187.484,256.459,205.716,295.824,229.549,319.857z"/>
		<path style="fill:#238AED;" d="M310.947,164.795c-39.982,33.182-94.031,45.782-121.93,77.331
			c-21.566,24.399-14.35,41.432-10.683,47.948C132.569,222.66,264.098,202.111,310.947,164.795z"/>
	</g>
	<rect x="109.977" y="391.951" style="fill:none;" width="280.046" height="17.517"/>
	
		<text transform="matrix(1 0 0 1 160.4771 405.9619)" style="fill:#4038FF; font-family:'Montserrat-Regular'; font-size:18.883px; letter-spacing:3;">SLOGAN HERE</text>
	<text transform="matrix(1 0 0 1 96.5708 378.875)"><tspan x="0" y="0" style="fill:#606060; font-family:'Montserrat-Medium'; font-size:54.2259px;">Travel</tspan><tspan x="165.115" y="0" style="fill:#606060; font-family:'Montserrat-Bold'; font-size:54.2259px;">Logo</tspan></text>
</g>
</svg>
